<svg class="animated" id="freepik_stories-feed" xmlns="http://www.w3.org/2000/svg" viewBox="0 0 500 500" version="1.1" xmlns:xlink="http://www.w3.org/1999/xlink" xmlns:svgjs="http://svgjs.com/svgjs"><style>svg#freepik_stories-feed:not(.animated) .animable {opacity: 0;}svg#freepik_stories-feed.animated #freepik--Character--inject-304 {animation: 1.5s Infinite  linear floating;animation-delay: 0s;}svg#freepik_stories-feed.animated #freepik--Device--inject-304 {animation: 6s Infinite  linear heartbeat;animation-delay: 0s;}svg#freepik_stories-feed.animated #freepik--Screen--inject-304 {animation: 6s Infinite  linear heartbeat;animation-delay: 0s;}            @keyframes floating {                0% {                    opacity: 1;                    transform: translateY(0px);                }                50% {                    transform: translateY(-10px);                }                100% {                    opacity: 1;                    transform: translateY(0px);                }            }                    @keyframes heartbeat {                0% {                    transform: scale(1);                }                10% {                    transform: scale(1.1);                }                30% {                    transform: scale(1);                }                40% {                    transform: scale(1);                }                50% {                    transform: scale(1.1);                }                60% {                    transform: scale(1);                }                100% {                    transform: scale(1);                }            }        </style><g id="freepik--Floor--inject-304" class="animable" style="transform-origin: 250.04px 356.25px;"><ellipse cx="250.04" cy="356.25" rx="229.89" ry="132.72" style="fill: rgb(245, 245, 245); transform-origin: 250.04px 356.25px;" id="el75a9vtcm5ta" class="animable"></ellipse></g><g id="freepik--Shadows--inject-304" class="animable" style="transform-origin: 250.872px 340.034px;"><path d="M257.31,295.59l-130,75.08c-3.66,2.11-10,1.85-14.27-.59L66.87,343.43c-4.23-2.44-4.69-6.13-1-8.24l130-75.08c3.66-2.11,10-1.84,14.27.59l46.16,26.65C260.51,289.79,261,293.48,257.31,295.59Z" style="fill: rgb(224, 224, 224); transform-origin: 161.584px 315.392px;" id="el24rif24e7ol" class="animable"></path><ellipse cx="328.78" cy="342.9" rx="91.08" ry="52.58" style="fill: rgb(224, 224, 224); transform-origin: 328.78px 342.9px;" id="elkpvsm56h0ra" class="animable"></ellipse><ellipse cx="244.81" cy="396.51" rx="43.08" ry="24.87" style="fill: rgb(224, 224, 224); transform-origin: 244.81px 396.51px;" id="elh8kca06pg7k" class="animable"></ellipse><path d="M430.81,358.79c10.08,5.82,10.08,15.26,0,21.08s-26.44,5.82-36.52,0-10.08-15.26,0-21.08S420.72,353,430.81,358.79Z" style="fill: rgb(224, 224, 224); transform-origin: 412.55px 369.336px;" id="el5gpkaqx200i" class="animable"></path></g><g id="freepik--Character--inject-304" class="animable" style="transform-origin: 316.274px 293.808px;"><path d="M413.37,310.6c-5.78,37.29-43.35,76.77-100.9,65.75-.57-.1-1.14-.21-1.7-.33-1.19-.25-2.39-.51-3.59-.81-60.54-14.55-64.8-53.76-62.15-70.83s18.42-30.8,27.74-36.24,20.87-11.6,31.49-28.76c9.63-15.6,25.09-24.94,48.14-23.37l2.05.16c1.65.16,3.36.38,5.1.64C359.55,216.81,426.61,225.22,413.37,310.6Z" style="fill: rgb(186, 104, 200); transform-origin: 329.778px 297.034px;" id="el3xkfsfcfzfw" class="animable"></path><g id="elv3rqz4qxxnc"><path d="M413.37,310.6c-5.78,37.29-43.35,76.77-100.9,65.75-.57-.1-1.14-.21-1.7-.33-1.19-.25-2.39-.51-3.59-.81-60.54-14.55-64.8-53.76-62.15-70.83s18.42-30.8,27.74-36.24,20.87-11.6,31.49-28.76c9.63-15.6,25.09-24.94,48.14-23.37l2.05.16c1.65.16,3.36.38,5.1.64C359.55,216.81,426.61,225.22,413.37,310.6Z" style="fill: rgb(255, 255, 255); opacity: 0.6; transform-origin: 329.778px 297.034px;" class="animable"></path></g><path d="M399.14,308.4c-5.53,35.7-37.79,73.78-86.67,68-.57-.1-1.14-.21-1.7-.33,47.85,4.67,79.38-32.92,84.84-68.17,10.94-70.52-29-87.92-43.21-91.84-1.31-.37-2.4-.61-3.22-.78l1.9.27a31.53,31.53,0,0,1,3.37.67C367.11,219.26,410.49,235.25,399.14,308.4Z" style="fill: rgb(186, 104, 200); transform-origin: 355.892px 296.133px;" id="eln1w5yhgb93q" class="animable"></path><g id="el31g7o4yy1en"><path d="M399.14,308.4c-5.53,35.7-37.79,73.78-86.67,68-.57-.1-1.14-.21-1.7-.33,47.85,4.67,79.38-32.92,84.84-68.17,10.94-70.52-29-87.92-43.21-91.84-1.31-.37-2.4-.61-3.22-.78l1.9.27a31.53,31.53,0,0,1,3.37.67C367.11,219.26,410.49,235.25,399.14,308.4Z" style="fill: rgb(255, 255, 255); opacity: 0.4; transform-origin: 355.892px 296.133px;" class="animable"></path></g><path d="M365.72,306.24s32.16-74.4-19.94-74.4c0,0-28.14-7.19-40.36,27.43s-47,25.63-47,53.14c0,16.65,7.15,35.6,13.09,47.94a90.82,90.82,0,0,0,15.75,8.43l.23-.16s2.08-17.22,14.63-25.64,40.59-16.68,49.81-23.63c8.71-6.55,26.67-4.33,29.57.22C380,316.42,374.36,305.31,365.72,306.24Z" style="fill: rgb(186, 104, 200); transform-origin: 319.96px 300px;" id="els99ignvu5b" class="animable"></path><g id="elboy9fezyr1d"><path d="M365.72,306.24s32.16-74.4-19.94-74.4c0,0-28.14-7.19-40.36,27.43s-47,25.63-47,53.14c0,16.65,7.15,35.6,13.09,47.94a90.82,90.82,0,0,0,15.75,8.43l.23-.16s2.08-17.22,14.63-25.64,40.59-16.68,49.81-23.63c8.71-6.55,26.67-4.33,29.57.22C380,316.42,374.36,305.31,365.72,306.24Z" style="fill: rgb(255, 255, 255); opacity: 0.4; transform-origin: 319.96px 300px;" class="animable"></path></g><path d="M381.46,319.57c.23.52.36.83.36.83A2.62,2.62,0,0,0,381.46,319.57Z" style="fill: rgb(186, 104, 200); transform-origin: 381.64px 319.985px;" id="el82yq8l10ea" class="animable"></path><path d="M258.67,324.28l2.48,38.12s15.63,1.69,13.76-10.48c0,0-.78-1.28-.6-4.28S278,329,278.13,324.12Z" style="fill: rgb(255, 168, 167); transform-origin: 268.4px 343.3px;" id="el85qd7wuy0zv" class="animable"></path><polygon points="260.7 355.54 262.65 356.99 276.95 327.02 274.93 324.15 272.98 324.17 269.38 327.02 260.12 346.65 260.7 355.54" style="fill: rgb(242, 143, 143); transform-origin: 268.535px 340.57px;" id="el6hhfxclzth4" class="animable"></polygon><path d="M260.2,362.54s-3.23-6.27,1.4-7.91,7.55,0,7.86,1.73.51,4.26.51,4.26a17.2,17.2,0,0,0,4.94-8.7s7.18,6.32,6.6,9.6-6.08,10.3-6.76,12.5-2.35,15.79-9.11,17.75-16.38,2-14-5.7c.81-2.66,5-5.78,5.95-8.4S260.2,362.54,260.2,362.54Z" style="fill: rgb(186, 104, 200); transform-origin: 266.407px 372.397px;" id="el4pyevd3n35o" class="animable"></path><path d="M272.17,383.83A12.93,12.93,0,0,0,258,376.27c-.14.6-.27,1.08-.38,1.4-.95,2.62-5.14,5.74-5.95,8.4-2.36,7.74,7.26,7.66,14,5.7,3.13-.91,5.17-4.32,6.53-7.94Z" style="fill: rgb(235, 235, 235); transform-origin: 261.753px 384.472px;" id="el9n1scmszso" class="animable"></path><path d="M280.71,358.62a2.85,2.85,0,0,1,.06,1.15c-.65,3.42-6.51,10.68-7.25,13s-2.69,16.47-9.79,18.43a25.28,25.28,0,0,1-10.05.85c2.92,1.4,7.94.9,12-.26,6.76-2,8.44-15.54,9.11-17.75s6.19-9.22,6.76-12.5A4.65,4.65,0,0,0,280.71,358.62Z" style="fill: rgb(38, 50, 56); transform-origin: 267.618px 375.76px;" id="elze2922djigp" class="animable"></path><path d="M268.4,364.45a.47.47,0,0,1-.33-.14c-3.19-3.18-7.51-1.42-7.69-1.35a.46.46,0,1,1-.36-.85c.05,0,5.06-2.08,8.71,1.54a.47.47,0,0,1-.33.8Z" style="fill: rgb(235, 235, 235); transform-origin: 264.302px 362.983px;" id="eltl5guj5pcec" class="animable"></path><path d="M268,368a.45.45,0,0,1-.32-.13c-3.2-3.18-7.52-1.43-7.7-1.35a.46.46,0,0,1-.61-.25.47.47,0,0,1,.25-.61s5.07-2.08,8.71,1.55a.46.46,0,0,1,0,.65A.43.43,0,0,1,268,368Z" style="fill: rgb(235, 235, 235); transform-origin: 263.9px 366.534px;" id="el8p1f6zzbp09" class="animable"></path><path d="M267.48,371.5a.46.46,0,0,1-.33-.13c-3.2-3.19-7.51-1.43-7.69-1.35a.47.47,0,0,1-.37-.86c.05,0,5.07-2.08,8.71,1.55a.44.44,0,0,1,0,.65A.43.43,0,0,1,267.48,371.5Z" style="fill: rgb(235, 235, 235); transform-origin: 263.394px 370.033px;" id="el3wuivehluja" class="animable"></path><path d="M266.75,375.05a.47.47,0,0,1-.33-.14c-3.2-3.18-7.51-1.42-7.69-1.35a.46.46,0,1,1-.36-.85c.05,0,5.06-2.09,8.71,1.54a.47.47,0,0,1-.33.8Z" style="fill: rgb(235, 235, 235); transform-origin: 262.652px 373.581px;" id="el19vxb6v1831" class="animable"></path><path d="M326.15,292.53l-15.1,7.82L283.7,314.54a10.36,10.36,0,0,0-5.12,6.17,10.26,10.26,0,0,0-.45,2.88v.53a16.58,16.58,0,0,1-1.91,1.14,16.3,16.3,0,0,1-6.84,1.76,20.85,20.85,0,0,1-10.71-2.74s-.1-4.52-.29-11.87,6.11-10.8,11.88-15.1S307,279.87,307,279.87Z" style="fill: rgb(69, 90, 100); transform-origin: 292.263px 303.447px;" id="elii088f5fkd" class="animable"></path><polygon points="307 297.7 323.75 292.66 326.15 295.02 308.38 301.74 307 297.7" style="fill: rgb(55, 71, 79); transform-origin: 316.575px 297.2px;" id="elwjqmun9rgei" class="animable"></polygon><path d="M312.45,301.6l-33.87,19.11-.37.21-2,4.34a16.3,16.3,0,0,1-6.84,1.76l3.71-7.8a10.26,10.26,0,0,1,4.17-4.5l29.74-17s-.22-5,.78-7.16c0,0,.17,6.28,3.27,9.81A6.67,6.67,0,0,0,312.45,301.6Z" style="fill: rgb(55, 71, 79); transform-origin: 290.91px 308.79px;" id="elc95cohcbhts" class="animable"></path><path d="M267,337l-21.65,45.61s-1.7,9.23,4.3,9.23,7-3.07,7-3.07.57-3.87,5.69-11,20.94-21,24.34-30.9Z" style="fill: rgb(255, 168, 167); transform-origin: 265.904px 364.42px;" id="elcb71t9rl3nt" class="animable"></path><path d="M355.15,298.4s-3,13.12-8.63,17.66-10.24,7.61-29.15,11.61c-12.44,2.62-20.55,4.82-24.64,6a5.3,5.3,0,0,0-3.72,4.05,85.32,85.32,0,0,1-2.3,9s-12.39.41-19.66-9.85l7.19-13.76a22.63,22.63,0,0,1,8.06-8.73,257,257,0,0,1,26.08-14.54c14.69-6.83,16.69-8.08,16.69-8.08Z" style="fill: rgb(69, 90, 100); transform-origin: 311.1px 319.241px;" id="el7p0od9k7tz" class="animable"></path><path d="M307.26,247.87l-14,21.88,10.61,10.12,15.81-24.38S315,247.34,307.26,247.87Z" style="fill: rgb(255, 168, 167); transform-origin: 306.47px 263.858px;" id="elb0mb6qupvfw" class="animable"></path><path d="M307.26,247.87s8.4,2.19,10.37,7.62l16.91-20.44-2.72-9.93a14.13,14.13,0,0,0-13.2,5C314.94,234.47,307.26,247.87,307.26,247.87Z" style="fill: rgb(186, 104, 200); transform-origin: 320.9px 240.214px;" id="elo4wdnrdle3" class="animable"></path><g id="elg3cqz5xnw7d"><path d="M307.26,247.87s8.4,2.19,10.37,7.62l16.91-20.44-2.72-9.93a14.13,14.13,0,0,0-13.2,5C314.94,234.47,307.26,247.87,307.26,247.87Z" style="opacity: 0.2; transform-origin: 320.9px 240.214px;" class="animable"></path></g><path d="M335.78,176.85s-4-3.3-8.65,1.8-.37,20-7.16,19.2c0,0,4.46,4.78,8.91,1.42a1.4,1.4,0,0,1,.54-.25c1.75-.34,3.36,2.81,4.06,3.93,1.94,3.08,3.62,6.3,5.56,9.37s4.38,7.35,7.56,9.27c3.77,2.29,9.44,1.94,13.3.16,6.26-2.88,10.62-9.54,12.8-15.87,1-2.8,1.86-6.13,1.49-9.09-.59-4.68-4.06-6.33-4.08-6.11,0,0,1.49-11.88-14-14.81C341.7,173.13,335.78,176.85,335.78,176.85Z" style="fill: rgb(38, 50, 56); transform-origin: 347.124px 199.03px;" id="el0p6gdm0d5fsd" class="animable"></path><path d="M356.33,214.94l-1.63,14.42,4.71,2s-23,11.56-28.31,9.8,5.65-15.68,5.65-15.68l2.66.33.35-6.68Z" style="fill: rgb(255, 168, 167); transform-origin: 344.529px 228.141px;" id="elc1tryqkyxh" class="animable"></path><path d="M352.07,217.69l-6.24-.09-6.07,1.54-.26,4.79C349.39,221.71,352.07,217.69,352.07,217.69Z" style="fill: rgb(255, 144, 144); transform-origin: 345.785px 220.765px;" id="elvggm29dex6" class="animable"></path><path d="M335.75,182.68s-6.62,3-8.3,17.2.71,20.77,9.63,20.77c7.17,0,15.63-1,19.25-5.71.88-1.16,2.68-29.08-4.88-33S335.75,182.68,335.75,182.68Z" style="fill: rgb(255, 168, 167); transform-origin: 342.06px 200.51px;" id="elvhtm7hjc0q" class="animable"></path><path d="M335.75,181.43s-.31,15.16,16.92,19.87c0,0-1.25,8,3.6,8H361v-14a15.92,15.92,0,0,0-15.92-15.92h-7.2a2.12,2.12,0,0,0-2.11,2.11Z" style="fill: rgb(38, 50, 56); transform-origin: 348.375px 194.34px;" id="elhxwrufmxw5v" class="animable"></path><polygon points="336.88 199.27 336.88 207.91 331.82 206.36 336.88 199.27" style="fill: rgb(255, 144, 144); transform-origin: 334.35px 203.59px;" id="elh9o8ad9del9" class="animable"></polygon><circle cx="342.11" cy="202.22" r="1.31" style="fill: rgb(38, 50, 56); transform-origin: 342.11px 202.22px;" id="elo87l2f4zp3m" class="animable"></circle><path d="M333.51,200a1.32,1.32,0,1,1-1.31-1.31A1.31,1.31,0,0,1,333.51,200Z" style="fill: rgb(38, 50, 56); transform-origin: 332.19px 200.01px;" id="elo5t9bszaou" class="animable"></path><path d="M330.56,195.12l3.27-.94s-.79-1.41-2.05-1S330.56,195.12,330.56,195.12Z" style="fill: rgb(38, 50, 56); transform-origin: 332.195px 194.113px;" id="elqdqaztsvvzf" class="animable"></path><path d="M356.14,208a9.61,9.61,0,0,1,.77-4.17,4.43,4.43,0,0,1,3.83-3c4.41-.12,5,4.13,4.95,5.64-.16,4-3.38,8.27-9.36,8.43Z" style="fill: rgb(255, 170, 168); transform-origin: 360.913px 207.864px;" id="eluzqsh2xhn9b" class="animable"></path><path d="M336.75,225.49l-4.93-.37s-18.45,13.73-17.27,23.26c.7,5.6,2.41,8.74,3.53,10.24a3.86,3.86,0,0,1,.63,3.11c-.67,3-2.14,8.6-4.21,11.23a42.38,42.38,0,0,1-7.5,6.91s5.58,10.21,16.32,15.51,28.05,5.78,31.83,3l5-28.63,2.48-36.91-4.14-1.9s-19.81,9.31-26,8.77C329.31,239.45,336.75,225.49,336.75,225.49Z" style="fill: rgb(186, 104, 200); transform-origin: 334.815px 262.586px;" id="el4qo24ita21l" class="animable"></path><g id="el23sl6hsbp51"><path d="M328.7,260.79a15.47,15.47,0,0,0,9.59,3,14.31,14.31,0,0,0,9.62-3.46s-2.63,4.91-9.76,4.91S328.7,260.79,328.7,260.79Z" style="opacity: 0.2; transform-origin: 338.305px 262.785px;" class="animable"></path></g><path d="M351.61,266.15l-2.95,12.94A169.75,169.75,0,0,0,330.27,276c-11.1-1.29-13.32-2-13.32-2l.69,12.06s13.45,5.4,25.77,7.18,15.59,1.32,18.76-8.7,4.32-14,4.32-14Z" style="fill: rgb(255, 168, 167); transform-origin: 341.72px 280.099px;" id="elocn03yi6jaj" class="animable"></path><path d="M362.59,232.86s-9.17,6.59-8.15,21.24c0,0-2.53,11-2.83,12,0,0,5.38,4.22,14.88,4.36l6.08-21.94a11.64,11.64,0,0,0-4.7-12.82A35.86,35.86,0,0,0,362.59,232.86Z" style="fill: rgb(186, 104, 200); transform-origin: 362.309px 251.66px;" id="ellvf8ukzpy7m" class="animable"></path><g id="el7oqdiq0d68r"><path d="M362.59,232.86s-9.17,6.59-8.15,21.24c0,0-2.53,11-2.83,12,0,0,5.38,4.22,14.88,4.36l6.08-21.94a11.64,11.64,0,0,0-4.7-12.82A35.86,35.86,0,0,0,362.59,232.86Z" style="opacity: 0.2; transform-origin: 362.309px 251.66px;" class="animable"></path></g><path d="M314.93,290.44l-.28-1.29-5.54-25.84s.41-.83.7-1.44a2.11,2.11,0,0,1,.43.36,2.63,2.63,0,0,1,.6,1.13l5.65,24.47.09.36C316.93,289.71,314.93,290.44,314.93,290.44Z" style="fill: rgb(55, 71, 79); transform-origin: 312.866px 276.155px;" id="eld84vrr5hlje" class="animable"></path><path d="M310.24,262.23l-1.13,1.08-13.53-4.53-1.12-.37.61-.59a1.35,1.35,0,0,1,.33-.26,1.87,1.87,0,0,1,1.44-.24l12.38,4.24A2.52,2.52,0,0,1,310.24,262.23Z" style="fill: rgb(69, 90, 100); transform-origin: 302.35px 260.289px;" id="el1mr6k7oiid5" class="animable"></path><path d="M294.27,259.08l6.16,24.62a3.24,3.24,0,0,0,2,2.24l11.72,4.53a1,1,0,0,0,1.36-1.17l-5.75-24.83a2.49,2.49,0,0,0-1.62-1.81l-12.93-4.42A.71.71,0,0,0,294.27,259.08Z" style="fill: rgb(38, 50, 56); transform-origin: 304.895px 274.372px;" id="el8dyoh2wroae" class="animable"></path><path d="M256.63,388.75a8,8,0,0,1-6.7.75s1.63-4.19-1.45-6-6.1-1.81-6.89.78l-.8,2.59s-7.74,6.07-10.65,7.93-5.69,3.26-7.86,4.66-7.75,5.46-2.92,10.57,19.19,2.48,22.83-3.35,14.14-3,14.14-10.06S256.63,388.75,256.63,388.75Z" style="fill: rgb(186, 104, 200); transform-origin: 237.039px 397.49px;" id="el1lbxulalcsv" class="animable"></path><path d="M228.8,395.62c-2.41,1.46-4.69,2.64-6.52,3.82-2.16,1.39-7.75,5.46-2.92,10.57,3.71,3.94,13.07,3.28,18.85.11C238.4,398.37,231.24,396.31,228.8,395.62Z" style="fill: rgb(235, 235, 235); transform-origin: 227.831px 404.178px;" id="elvc6nop49i5o" class="animable"></path><path d="M242.47,404.87c-3.84,6.14-19,8.92-24.05,3.53-.23-.24-.43-.48-.62-.72a7.42,7.42,0,0,0,1.56,2.33c4.83,5.12,19.19,2.48,22.83-3.35,3.47-5.54,13.12-3.23,14.06-9.09C253.35,400.92,245.57,399.92,242.47,404.87Z" style="fill: rgb(38, 50, 56); transform-origin: 237.025px 405.154px;" id="eltdwvzikzvd" class="animable"></path><path d="M246.69,393.19a.47.47,0,0,1-.46-.38c-.8-4.46-5.49-5.5-5.54-5.51a.47.47,0,0,1-.36-.55.47.47,0,0,1,.55-.36c.06,0,5.35,1.19,6.27,6.25a.47.47,0,0,1-.38.54Z" style="fill: rgb(235, 235, 235); transform-origin: 243.739px 389.786px;" id="elkedv722nmph" class="animable"></path><path d="M244.11,395.22a.47.47,0,0,1-.46-.38c-.8-4.45-5.49-5.49-5.54-5.5a.47.47,0,0,1-.36-.55.46.46,0,0,1,.55-.36c.06,0,5.35,1.18,6.27,6.24a.46.46,0,0,1-.38.54Z" style="fill: rgb(235, 235, 235); transform-origin: 241.16px 391.82px;" id="elguxt0svkttw" class="animable"></path><path d="M241.16,397.51a.47.47,0,0,1-.46-.38c-.8-4.44-5.34-5.46-5.54-5.5a.48.48,0,0,1-.36-.56.46.46,0,0,1,.55-.35c.06,0,5.35,1.18,6.27,6.24a.46.46,0,0,1-.38.54Z" style="fill: rgb(235, 235, 235); transform-origin: 238.209px 394.109px;" id="el6vqjhpgedpo" class="animable"></path><path d="M238.64,399.41a.46.46,0,0,1-.45-.39c-.8-4.43-5.35-5.46-5.54-5.5a.47.47,0,0,1-.36-.55.46.46,0,0,1,.55-.36s5.35,1.19,6.26,6.25a.46.46,0,0,1-.37.54Z" style="fill: rgb(235, 235, 235); transform-origin: 235.695px 396.005px;" id="elya378saut9d" class="animable"></path><path d="M335.75,210a8,8,0,0,0,5-1.35s.34,2.65-1.87,3.15S335.75,210,335.75,210Z" style="fill: rgb(255, 144, 144); transform-origin: 338.259px 210.261px;" id="el8ruf9zumcwj" class="animable"></path><path d="M296.07,270.83c-.24-.36-.13-.85-.24-1.43a9.88,9.88,0,0,0-1.17-2.92,3,3,0,0,0-1-1.27,1.15,1.15,0,0,0-1.5.19,1.63,1.63,0,0,0-.21.87,12.63,12.63,0,0,0,.35,4.12c.32,1-.31,2.31-.45,3.29-.23,1.53.37,2.17.73,3.69.83,3.44,3.62,5,7,4.37,7-1.28,6.74-10.66,5.8-11.95s-2.54-2.06-5.25.19c-.88.73-2.34,1.67-3.57,1.21A.94.94,0,0,1,296.07,270.83Z" style="fill: rgb(255, 168, 167); transform-origin: 298.832px 273.446px;" id="el7sgbjj4if73" class="animable"></path><path d="M319.64,274.94a13.87,13.87,0,0,0-7.6-6.38l1,4.16s-4.87.94-7.95.39-8.73-4.12-7.83-.06,1.81,6.74,4.13,8.58a16.32,16.32,0,0,0,8.65,3.76c3.33.26,7.64.68,7.64.68Z" style="fill: rgb(255, 168, 167); transform-origin: 308.402px 277.315px;" id="el48x9jusauqo" class="animable"></path><path d="M301.35,281.86a.24.24,0,0,1-.14-.05c-2.34-1.86-3.29-4.49-4.22-8.71-.2-.91-.1-1.53.31-1.88.84-.74,2.74,0,4.76.71a20,20,0,0,0,3,1,12.23,12.23,0,0,0,1.35.14.23.23,0,1,1,0,.46,9.53,9.53,0,0,1-1.41-.15,19.8,19.8,0,0,1-3.11-1c-1.72-.64-3.66-1.36-4.3-.8-.26.23-.31.71-.16,1.43.91,4.11,1.82,6.68,4.05,8.44a.24.24,0,0,1,0,.33A.21.21,0,0,1,301.35,281.86Z" style="fill: rgb(255, 144, 144); transform-origin: 301.765px 276.386px;" id="elcl417qhk6ri" class="animable"></path><path d="M369.62,191a12.62,12.62,0,0,1,13.29.5,15.78,15.78,0,0,1,6.63,11.86c.73,9.69-2.93,12.51-6.62,24.12-1.21,3.8,0,8.29,9.67,12.76,0,0-25.1,4.86-20.8-20.36,3.12-18.3-3.56-17.62-3.56-17.62Z" style="fill: rgb(38, 50, 56); transform-origin: 380.41px 214.982px;" id="elzpka38lf7c" class="animable"></path></g><g id="freepik--Plant--inject-304" class="animable" style="transform-origin: 416.63px 332.08px;"><path d="M417.15,342.08s-12.57-12.28-5.41-32.85c4-11.53,17.3-20,24.87-20.79a35.38,35.38,0,0,0-5.92,10l-9.53,6.34,8.76-2.74-1.86,7.5s-8.15,4.92-9.36,6l8.78-2.3S426.81,334.45,417.15,342.08Z" style="fill: rgb(186, 104, 200); transform-origin: 423.073px 315.26px;" id="el1dnzj8kjpkm" class="animable"></path><g id="elo1uzxesecxl"><path d="M417.15,342.08s-12.57-12.28-5.41-32.85c4-11.53,17.3-20,24.87-20.79a35.38,35.38,0,0,0-5.92,10l-9.53,6.34,8.76-2.74-1.86,7.5s-8.15,4.92-9.36,6l8.78-2.3S426.81,334.45,417.15,342.08Z" style="opacity: 0.4; transform-origin: 423.073px 315.26px;" class="animable"></path></g><path d="M417.15,342.08s-6.51-25.7,3.13-40.68C420.28,301.4,409,314.62,417.15,342.08Z" style="fill: rgb(255, 255, 255); transform-origin: 417.236px 321.74px;" id="el7pi15a0plr4" class="animable"></path><path d="M431.55,345.56l-15.39-.19H416l-15.38.19s-.17,18.95,5.66,26.67h0c1.62,2,5.4,3.49,9.8,3.49s8.2-1.45,9.81-3.5C431.72,364.5,431.55,345.56,431.55,345.56Z" style="fill: rgb(55, 71, 79); transform-origin: 416.085px 360.545px;" id="elf9i0t4q303r" class="animable"></path><ellipse cx="416.08" cy="345.56" rx="15.46" ry="8.3" style="fill: rgb(69, 90, 100); transform-origin: 416.08px 345.56px;" id="elv94dix3v2o" class="animable"></ellipse><path d="M416.08,343.36c5.32,0,9.83,1.7,11.41,4.07a3.32,3.32,0,0,0,.62-1.87c0-3.28-5.38-5.94-12-5.94s-12,2.66-12,5.94a3.32,3.32,0,0,0,.62,1.87C406.25,345.06,410.76,343.36,416.08,343.36Z" style="fill: rgb(38, 50, 56); transform-origin: 416.11px 343.525px;" id="el5sy7clsncaj" class="animable"></path><path d="M416.08,343.36c-5.32,0-9.83,1.7-11.41,4.07,1.58,2.36,6.09,4.07,11.41,4.07s9.83-1.71,11.41-4.07C425.91,345.06,421.4,343.36,416.08,343.36Z" style="fill: rgb(224, 224, 224); transform-origin: 416.08px 347.43px;" id="ellh8qk3d0ram" class="animable"></path><path d="M416.27,348.45s-6-.23-11.07-8.14c-2.11-3.27-3.13-5-3.13-5l8.31-.62-9.31-2.33-4.39-6.72,7.72-.58s-5.75-2-9.86-2c0,0-7.12-12.58-9.21-14.38a40.42,40.42,0,0,1,28.15,14C425.19,336.49,418,348.81,416.27,348.45Z" style="fill: rgb(186, 104, 200); transform-origin: 402.684px 328.569px;" id="eljxedoukypqd" class="animable"></path><path d="M416.27,348.45S420,326,396.21,312.5C396.21,312.5,420.9,324.36,416.27,348.45Z" style="fill: rgb(255, 255, 255); transform-origin: 406.529px 330.475px;" id="el6z8womo7228" class="animable"></path><path d="M416.27,348.45s5.4.35,10.76-6.31c2.21-2.74,3.28-4.19,3.28-4.19l-7.43-1.34,8.61-1.23,4.6-5.65-6.91-1.24s5.38-1.28,9.09-.92c0,0,7.61-10.68,9.66-12.1a36.62,36.62,0,0,0-26.71,10C409.35,336.82,414.67,348.61,416.27,348.45Z" style="fill: rgb(186, 104, 200); transform-origin: 430.811px 331.946px;" id="el7j93060gzu8" class="animable"></path><g id="el83wzy8fwv1p"><path d="M416.27,348.45s5.4.35,10.76-6.31c2.21-2.74,3.28-4.19,3.28-4.19l-7.43-1.34,8.61-1.23,4.6-5.65-6.91-1.24s5.38-1.28,9.09-.92c0,0,7.61-10.68,9.66-12.1a36.62,36.62,0,0,0-26.71,10C409.35,336.82,414.67,348.61,416.27,348.45Z" style="opacity: 0.2; transform-origin: 430.811px 331.946px;" class="animable"></path></g><path d="M416.27,348.45S415,327.84,437.75,317.9C437.75,317.9,414.36,326.28,416.27,348.45Z" style="fill: rgb(255, 255, 255); transform-origin: 426.955px 333.175px;" id="elek5g91ik63i" class="animable"></path></g><g id="freepik--Device--inject-304" class="animable" style="transform-origin: 149.415px 188.727px;"><path d="M104.39,347.81l101.77-58.75c7.18-4.15,13-15.27,13-24.84V46.29c0-9.57-5.82-14-13-9.82L104.39,95.22c-7.18,4.15-13,15.27-13,24.84V338C91.39,347.56,97.21,352,104.39,347.81Z" style="fill: rgb(69, 90, 100); transform-origin: 155.275px 192.142px;" id="elp9mlm47dze" class="animable"></path><path d="M92.67,88.39,194.44,29.63c3.07-1.77,5.89-2,8.11-.89h0a5.78,5.78,0,0,1,.79.46l11.4,6.62c-2.29-1.36-5.3-1.27-8.59.64L104.39,95.22c-7.18,4.15-13,15.27-13,24.84V338c0,5.06,1.63,8.67,4.22,10.34l-11.25-6.55h0c-2.87-1.53-4.69-5.27-4.69-10.63V113.23C79.67,103.66,85.49,92.54,92.67,88.39Z" style="fill: rgb(55, 71, 79); transform-origin: 147.205px 188.202px;" id="eli7ecvqq9js" class="animable"></path><path d="M91.39,120.06V338c0,5.06,1.63,8.67,4.22,10.34l-11.25-6.55h0c-2.87-1.53-4.69-5.27-4.69-10.63V113.23h0L91.39,120Z" style="fill: rgb(38, 50, 56); transform-origin: 87.64px 230.785px;" id="el32pgnk7lf0t" class="animable"></path><polygon points="79.67 130.15 91.39 136.92 91.39 142.2 79.67 135.43 79.67 130.15" style="fill: rgb(55, 71, 79); transform-origin: 85.53px 136.175px;" id="el97q7nv84ltg" class="animable"></polygon><path d="M84.8,165.31h0c1,.6,1.9,0,1.9-1.44V152.51a4.55,4.55,0,0,0-1.9-3.63h0c-1-.6-1.89,0-1.89,1.44v11.36A4.57,4.57,0,0,0,84.8,165.31Z" style="fill: rgb(55, 71, 79); transform-origin: 84.805px 157.095px;" id="elqvwpsxl1ys" class="animable"></path><path d="M86.7,163.87V152.51a4.55,4.55,0,0,0-1.9-3.63,1.21,1.21,0,0,0-1.19-.11h0L85,148v0a1.2,1.2,0,0,1,1.23.09,4.54,4.54,0,0,1,1.9,3.63v11.36a1.7,1.7,0,0,1-.64,1.52h0l-1.49.77h0A1.65,1.65,0,0,0,86.7,163.87Z" style="fill: rgb(69, 90, 100); transform-origin: 85.8749px 156.621px;" id="el8ouj1uuavbv" class="animable"></path><path d="M84.8,192.82h0c1,.61,1.9,0,1.9-1.43V180a4.52,4.52,0,0,0-1.9-3.62h0c-1-.61-1.89,0-1.89,1.43V189.2A4.55,4.55,0,0,0,84.8,192.82Z" style="fill: rgb(55, 71, 79); transform-origin: 84.805px 184.6px;" id="elgc9uae60wic" class="animable"></path><path d="M86.7,191.39V180a4.52,4.52,0,0,0-1.9-3.62,1.19,1.19,0,0,0-1.19-.11v0l1.42-.73h0a1.2,1.2,0,0,1,1.23.09,4.55,4.55,0,0,1,1.9,3.63v11.36a1.69,1.69,0,0,1-.64,1.52h0l-1.49.78v0A1.63,1.63,0,0,0,86.7,191.39Z" style="fill: rgb(69, 90, 100); transform-origin: 85.8902px 184.166px;" id="elwfcvp3eiut" class="animable"></path><path d="M107.93,101.35,208,43.59A2.76,2.76,0,0,1,212.08,46V264.22c0,7.28-5.16,16.23-11.47,19.87L103,340.43a3,3,0,0,1-4.56-2.63V117.74C98.46,111.73,102.72,104.36,107.93,101.35Z" style="fill: rgb(186, 104, 200); transform-origin: 155.26px 192.061px;" id="elnumvc5vokp" class="animable"></path><g id="ell7aahiut5u"><path d="M107.93,101.35,208,43.59A2.76,2.76,0,0,1,212.08,46V264.22c0,7.28-5.16,16.23-11.47,19.87L103,340.43a3,3,0,0,1-4.56-2.63V117.74C98.46,111.73,102.72,104.36,107.93,101.35Z" style="fill: rgb(255, 255, 255); opacity: 0.5; transform-origin: 155.26px 192.061px;" class="animable"></path></g><polygon points="178.04 58.67 176.49 65.2 143.34 84.31 137.62 81.26 178.04 58.67" style="fill: rgb(69, 90, 100); transform-origin: 157.83px 71.49px;" id="elk5w900b78g" class="animable"></polygon><path d="M168.3,65c0,1.08.76,1.52,1.69,1a3.75,3.75,0,0,0,1.7-2.94c0-1.08-.76-1.52-1.7-1A3.77,3.77,0,0,0,168.3,65Z" style="fill: rgb(38, 50, 56); transform-origin: 169.995px 64.03px;" id="el3gn1l9vcdq1" class="animable"></path><path d="M146,78.78a1.08,1.08,0,0,0,.52-.13l16.93-9.47a1.05,1.05,0,0,0,.41-1.44,1.06,1.06,0,0,0-1.44-.41l-16.94,9.46a1.08,1.08,0,0,0-.41,1.45A1.07,1.07,0,0,0,146,78.78Z" style="fill: rgb(38, 50, 56); transform-origin: 154.468px 72.9884px;" id="elmka1z3revp" class="animable"></path></g><g id="freepik--Screen--inject-304" class="animable" style="transform-origin: 178.953px 205.269px;"><path d="M232.17,299.59c-21.86,13-78.74,47-106.89,63.94a5.53,5.53,0,0,1-8.38-4.74V123.57a15.34,15.34,0,0,1,7.59-13.24L232.68,46.92A5.53,5.53,0,0,1,241,51.69V284A18.13,18.13,0,0,1,232.17,299.59Z" style="fill: rgb(245, 245, 245); transform-origin: 178.95px 205.243px;" id="elmc27y6sb8ub" class="animable"></path><path d="M231.73,298.84Q206,314.2,180.26,329.58L149.8,347.8l-13.91,8.34-6.08,3.66c-1.85,1.11-3.82,2.68-5.85,3.41-3.22,1.14-6.1-1.46-6.19-4.62,0-.55,0-1.09,0-1.64V141.28c0-5.74,0-11.48,0-17.23a14.93,14.93,0,0,1,7.46-13.15c2.48-1.47,5-2.92,7.46-4.37L167.64,86l41.42-24.27c7.85-4.6,15.69-9.24,23.57-13.81,2.28-1.33,5.14-1.24,6.75,1.16a5.45,5.45,0,0,1,.76,3.2c0,2,0,4.1,0,6.15V283.13c0,6.45-2.8,12.27-8.41,15.71-.95.59-.08,2.09.88,1.5a19.54,19.54,0,0,0,9.27-17.07V68.73c0-5.59.06-11.18,0-16.76a6.51,6.51,0,0,0-10-5.59c-2.6,1.5-5.18,3-7.78,4.56L188.19,72,146.4,96.48c-7.39,4.33-14.81,8.63-22.17,13A16.59,16.59,0,0,0,116,124c0,1.92,0,3.85,0,5.77V357.67c0,.37,0,.74,0,1.11a6.46,6.46,0,0,0,8.38,6.1c2-.68,4-2.21,5.82-3.32l6.2-3.72,13.87-8.32q30.32-18.16,60.67-36.27l21.63-12.91A.87.87,0,0,0,231.73,298.84Z" style="fill: rgb(224, 224, 224); transform-origin: 178.953px 205.269px;" id="el4o9g6fnk86v" class="animable"></path><path d="M175.86,326.19l7-4a5.52,5.52,0,0,0,2.31-4.41v-7.22c0-1.7-1-2.48-2.31-1.74l-7,4a5.53,5.53,0,0,0-2.31,4.41v7.21C173.55,326.15,174.59,326.93,175.86,326.19Z" style="fill: rgb(224, 224, 224); transform-origin: 179.36px 317.505px;" id="elir9yx0pv5i" class="animable"></path><path d="M179.34,320.91a1.59,1.59,0,0,0,.72-1.25V314.5c0-.46-.32-.64-.72-.41a1.59,1.59,0,0,0-.72,1.25v5.16C178.62,321,178.94,321.14,179.34,320.91Z" style="fill: rgb(255, 255, 255); transform-origin: 179.34px 317.504px;" id="el8pdw7e0aki6" class="animable"></path><path d="M177.11,319.62l4.46-2.58a1.6,1.6,0,0,0,.73-1.25c0-.46-.33-.64-.73-.41L177.11,318a1.6,1.6,0,0,0-.73,1.25C176.38,319.67,176.71,319.85,177.11,319.62Z" style="fill: rgb(255, 255, 255); transform-origin: 179.34px 317.501px;" id="elb8lhejfpcg" class="animable"></path><path d="M157.61,325.37a1.68,1.68,0,0,1,2.77,1.59,5.66,5.66,0,0,1-.81,2.73,5.58,5.58,0,0,1-2,2.06,1.93,1.93,0,0,1-2,.2c-1.08-.62-1.08-2.65,0-4.52a5.55,5.55,0,0,1,2-2.06m0-1.67a8.61,8.61,0,0,0-3,3.14c-1.65,2.85-1.65,5.93,0,6.87a3,3,0,0,0,3-.29,8.55,8.55,0,0,0,3-3.14c1.64-2.85,1.64-5.93,0-6.88a3,3,0,0,0-3,.3Z" style="fill: rgb(224, 224, 224); transform-origin: 157.566px 328.557px;" id="elw7fs3o52cqb" class="animable"></path><path d="M151.49,340a1.48,1.48,0,0,0,.51-.54l3.15-5.45c.28-.49.28-1,0-1.18s-.74.1-1,.59L151,338.87c-.28.49-.28,1,0,1.18A.53.53,0,0,0,151.49,340Z" style="fill: rgb(224, 224, 224); transform-origin: 153.075px 336.432px;" id="elc3pnw3fdpjh" class="animable"></path><path d="M196.83,300.71c1.74-1,3.15.1,3.15,2.47a7.62,7.62,0,0,1,3.15-6.1c1.74-1,3.15.1,3.15,2.46,0,6-6.3,12.24-6.3,12.24s-6.29,1.06-6.29-5A7.64,7.64,0,0,1,196.83,300.71Z" style="fill: rgb(224, 224, 224); transform-origin: 199.985px 304.281px;" id="el8gojh20a7b4" class="animable"></path><path d="M218.67,290.05c0,1.78,1.25,2.5,2.79,1.61a6.16,6.16,0,0,0,2.79-4.83c0-1.78-1.25-2.5-2.79-1.61A6.16,6.16,0,0,0,218.67,290.05Z" style="fill: rgb(224, 224, 224); transform-origin: 221.46px 288.44px;" id="elmxc7dmsj59" class="animable"></path><path d="M221.46,291.66h0c2.28-1.31,4.13.08,4.13,3.12v.94l-8.26,4.77v-.95C217.33,296.51,219.18,293,221.46,291.66Z" style="fill: rgb(224, 224, 224); transform-origin: 221.46px 295.829px;" id="elkbopqm1c9kf" class="animable"></path><path d="M135.75,336.31l5.57,1.84V346L137,348.44v-4.25c0-.8-.56-1.12-1.25-.72a2.77,2.77,0,0,0-1.25,2.17v4.24l-4.31,2.49v-7.8Z" style="fill: rgb(224, 224, 224); transform-origin: 135.755px 344.34px;" id="el56l9d2ef1rx" class="animable"></path><path d="M116.9,340.68a.56.56,0,0,1-.5-.29.58.58,0,0,1,.21-.8L240.68,268a.59.59,0,0,1,.8.22.58.58,0,0,1-.21.8L117.2,340.6A.56.56,0,0,1,116.9,340.68Z" style="fill: rgb(224, 224, 224); transform-origin: 178.94px 304.302px;" id="el8pebt686hlf" class="animable"></path><path d="M124.49,110.33,232.68,46.92A5.53,5.53,0,0,1,241,51.69V61.9h0L116.9,133.53v-10A15.34,15.34,0,0,1,124.49,110.33Z" style="fill: rgb(224, 224, 224); transform-origin: 178.95px 89.8473px;" id="elvoth5t0yd8" class="animable"></path><g id="el9mree1at8uc"><ellipse cx="140.42" cy="142.2" rx="12.72" ry="7.34" style="fill: rgb(186, 104, 200); transform-origin: 140.42px 142.2px; transform: rotate(-60deg);" class="animable"></ellipse></g><path d="M154.4,140.39a1,1,0,0,1-.5-1.87l14.86-8.58a1,1,0,0,1,1,1.74l-14.86,8.57A.93.93,0,0,1,154.4,140.39Z" style="fill: rgb(69, 90, 100); transform-origin: 161.827px 135.099px;" id="elop2g6mydmz" class="animable"></path><path d="M154.45,131.81a1,1,0,0,1-.5-1.87l40.85-23.58a1,1,0,0,1,1,1.73L155,131.68A1,1,0,0,1,154.45,131.81Z" style="fill: rgb(69, 90, 100); transform-origin: 174.853px 119.029px;" id="elez1t8ve8vr" class="animable"></path><path d="M149.41,303.36c0,5.74-4,12.71-9,15.58s-9,.54-9-5.19,4-12.71,9-15.58S149.41,297.63,149.41,303.36Z" style="fill: rgb(186, 104, 200); transform-origin: 140.41px 308.555px;" id="elf8uy7sctu8a" class="animable"></path><path d="M154.4,306.75a1,1,0,0,1-.5-1.87l14.86-8.58a1,1,0,1,1,1,1.73l-14.86,8.58A1,1,0,0,1,154.4,306.75Z" style="fill: rgb(69, 90, 100); transform-origin: 161.845px 301.447px;" id="elm0hgpvjugen" class="animable"></path><path d="M154.45,298.17a1,1,0,0,1-.5-1.87l40.85-23.58a1,1,0,0,1,1,1.73L155,298A1,1,0,0,1,154.45,298.17Z" style="fill: rgb(69, 90, 100); transform-origin: 174.853px 285.388px;" id="eld8e03601dzh" class="animable"></path><path d="M149.41,251.49c0,5.74-4,12.71-9,15.58s-9,.54-9-5.19,4-12.71,9-15.58S149.41,245.76,149.41,251.49Z" style="fill: rgb(186, 104, 200); transform-origin: 140.41px 256.685px;" id="eltvlq234woz" class="animable"></path><path d="M154.4,254.87a1,1,0,0,1-.5-1.86l14.86-8.58a1,1,0,1,1,1,1.73l-14.86,8.58A1,1,0,0,1,154.4,254.87Z" style="fill: rgb(69, 90, 100); transform-origin: 161.853px 249.572px;" id="elw7s4dea1yd" class="animable"></path><path d="M154.45,246.29a1,1,0,0,1-.86-.5,1,1,0,0,1,.36-1.36l40.85-23.58a1,1,0,0,1,1.36.36,1,1,0,0,1-.36,1.37L155,246.16A1,1,0,0,1,154.45,246.29Z" style="fill: rgb(69, 90, 100); transform-origin: 174.877px 233.504px;" id="elqvm0wa8l4on" class="animable"></path><text transform="matrix(0.87, -0.5, 0, 1, 131.47, 284.84)" style="font-size:6.908583641052246px;fill:#455a64;font-family:Montserrat-ExtraBold, Montserrat;font-weight:800">Status upda<tspan x="43.06" y="0" style="letter-spacing:-0.000989470736328181em">t</tspan><tspan x="46.16" y="0">ed</tspan></text><path d="M223.3,177l-87.92,50.76a2.63,2.63,0,0,1-3.95-2.28V169.85a6.37,6.37,0,0,1,3.18-5.52l87.92-50.76a2.64,2.64,0,0,1,3.95,2.28v55.66A6.35,6.35,0,0,1,223.3,177Z" style="fill: rgb(186, 104, 200); transform-origin: 178.955px 170.669px;" id="elsnx3wo5nqx" class="animable"></path><g id="ely46wj5gjole"><path d="M223.3,177l-87.92,50.76a2.63,2.63,0,0,1-3.95-2.28V169.85a6.37,6.37,0,0,1,3.18-5.52l87.92-50.76a2.64,2.64,0,0,1,3.95,2.28v55.66A6.35,6.35,0,0,1,223.3,177Z" style="fill: rgb(255, 255, 255); opacity: 0.5; transform-origin: 178.955px 170.669px;" class="animable"></path></g><g id="elxkzadac6vw"><ellipse cx="179.92" cy="178.9" rx="24.84" ry="14.34" style="fill: rgb(255, 255, 255); transform-origin: 179.92px 178.9px; transform: rotate(-60deg);" class="animable"></ellipse></g><path d="M226.49,150.62v20.89A6.36,6.36,0,0,1,223.3,177l-87.93,50.76a2.62,2.62,0,0,1-3.94-2.28v-20Z" style="fill: rgb(186, 104, 200); transform-origin: 178.96px 189.368px;" id="elbkzldv95tn" class="animable"></path><path d="M157.68,206.42a2.07,2.07,0,0,1-1.32-.57c-.41-.32-.56-.43-1.1-.13a.6.6,0,1,1-.6-1,1.9,1.9,0,0,1,2.44.22c.41.32.56.44,1.1.13a4.47,4.47,0,0,0,1.54-2,5.44,5.44,0,0,1,2-2.46,1.89,1.89,0,0,1,2.43.22c.42.33.57.44,1.11.13a4.36,4.36,0,0,0,1.53-2,5.51,5.51,0,0,1,2-2.47,1.91,1.91,0,0,1,2.44.22c.41.32.57.44,1.1.13a.61.61,0,0,1,.82.22.6.6,0,0,1-.22.82,1.9,1.9,0,0,1-2.44-.22c-.41-.32-.57-.44-1.1-.13a4.34,4.34,0,0,0-1.54,2,5.51,5.51,0,0,1-2,2.46,1.9,1.9,0,0,1-2.44-.22c-.41-.32-.57-.44-1.1-.13a4.36,4.36,0,0,0-1.54,2,5.42,5.42,0,0,1-2,2.47A2.21,2.21,0,0,1,157.68,206.42Z" style="fill: rgb(186, 104, 200); transform-origin: 163.745px 201.285px;" id="elm6adpfwzfyo" class="animable"></path><g id="el1n6i9cbxxlm"><g style="opacity: 0.5; transform-origin: 163.745px 201.285px;" class="animable"><path d="M157.68,206.42a2.07,2.07,0,0,1-1.32-.57c-.41-.32-.56-.43-1.1-.13a.6.6,0,1,1-.6-1,1.9,1.9,0,0,1,2.44.22c.41.32.56.44,1.1.13a4.47,4.47,0,0,0,1.54-2,5.44,5.44,0,0,1,2-2.46,1.89,1.89,0,0,1,2.43.22c.42.33.57.44,1.11.13a4.36,4.36,0,0,0,1.53-2,5.51,5.51,0,0,1,2-2.47,1.91,1.91,0,0,1,2.44.22c.41.32.57.44,1.1.13a.61.61,0,0,1,.82.22.6.6,0,0,1-.22.82,1.9,1.9,0,0,1-2.44-.22c-.41-.32-.57-.44-1.1-.13a4.34,4.34,0,0,0-1.54,2,5.51,5.51,0,0,1-2,2.46,1.9,1.9,0,0,1-2.44-.22c-.41-.32-.57-.44-1.1-.13a4.36,4.36,0,0,0-1.54,2,5.42,5.42,0,0,1-2,2.47A2.21,2.21,0,0,1,157.68,206.42Z" style="fill: rgb(255, 255, 255); transform-origin: 163.745px 201.285px;" id="elk6xz0id0rd9" class="animable"></path></g></g><path d="M201.78,181.48a2.1,2.1,0,0,1-1.32-.57c-.42-.32-.57-.44-1.1-.13a.6.6,0,1,1-.6-1,1.88,1.88,0,0,1,2.43.23c.41.32.57.44,1.1.13a4.39,4.39,0,0,0,1.54-2,5.44,5.44,0,0,1,2-2.46,1.91,1.91,0,0,1,2.44.22c.41.32.57.44,1.1.13a4.47,4.47,0,0,0,1.54-2,5.44,5.44,0,0,1,2-2.46,1.9,1.9,0,0,1,2.44.22c.41.32.57.44,1.1.13a.6.6,0,0,1,.82.22.59.59,0,0,1-.22.82,1.9,1.9,0,0,1-2.43-.22c-.42-.32-.57-.44-1.11-.13a4.47,4.47,0,0,0-1.54,2,5.44,5.44,0,0,1-2,2.46,1.91,1.91,0,0,1-2.44-.22c-.41-.32-.56-.44-1.1-.13a4.44,4.44,0,0,0-1.54,2,5.42,5.42,0,0,1-2,2.47A2.32,2.32,0,0,1,201.78,181.48Z" style="fill: rgb(186, 104, 200); transform-origin: 207.846px 176.353px;" id="elqii0nxiq4w" class="animable"></path><g id="elqwetgpvtrn9"><g style="opacity: 0.5; transform-origin: 207.846px 176.353px;" class="animable"><path d="M201.78,181.48a2.1,2.1,0,0,1-1.32-.57c-.42-.32-.57-.44-1.1-.13a.6.6,0,1,1-.6-1,1.88,1.88,0,0,1,2.43.23c.41.32.57.44,1.1.13a4.39,4.39,0,0,0,1.54-2,5.44,5.44,0,0,1,2-2.46,1.91,1.91,0,0,1,2.44.22c.41.32.57.44,1.1.13a4.47,4.47,0,0,0,1.54-2,5.44,5.44,0,0,1,2-2.46,1.9,1.9,0,0,1,2.44.22c.41.32.57.44,1.1.13a.6.6,0,0,1,.82.22.59.59,0,0,1-.22.82,1.9,1.9,0,0,1-2.43-.22c-.42-.32-.57-.44-1.11-.13a4.47,4.47,0,0,0-1.54,2,5.44,5.44,0,0,1-2,2.46,1.91,1.91,0,0,1-2.44-.22c-.41-.32-.56-.44-1.1-.13a4.44,4.44,0,0,0-1.54,2,5.42,5.42,0,0,1-2,2.47A2.32,2.32,0,0,1,201.78,181.48Z" style="fill: rgb(255, 255, 255); transform-origin: 207.846px 176.353px;" id="elqjhlm4upf4" class="animable"></path></g></g><path d="M173.79,191.86a2.12,2.12,0,0,1-1.32-.56c-.41-.32-.57-.44-1.1-.13a.61.61,0,0,1-.82-.22.59.59,0,0,1,.22-.82,1.9,1.9,0,0,1,2.44.22c.41.32.56.44,1.1.13a4.41,4.41,0,0,0,1.53-2,5.55,5.55,0,0,1,2-2.47,1.89,1.89,0,0,1,2.44.23c.41.32.57.44,1.1.13a4.39,4.39,0,0,0,1.54-2,5.48,5.48,0,0,1,2-2.47,1.89,1.89,0,0,1,2.44.23c.42.32.57.44,1.11.13a.6.6,0,1,1,.6,1,1.88,1.88,0,0,1-2.44-.22c-.41-.32-.57-.44-1.11-.13a4.44,4.44,0,0,0-1.53,2,5.48,5.48,0,0,1-2,2.46,1.88,1.88,0,0,1-2.43-.22c-.42-.32-.57-.44-1.11-.13a4.39,4.39,0,0,0-1.53,2,5.51,5.51,0,0,1-2,2.46A2.21,2.21,0,0,1,173.79,191.86Z" style="fill: rgb(186, 104, 200); transform-origin: 179.979px 186.709px;" id="el1h1ycwikvvq" class="animable"></path><g id="ellxlbekcmzqe"><g style="opacity: 0.5; transform-origin: 179.979px 186.709px;" class="animable"><path d="M173.79,191.86a2.12,2.12,0,0,1-1.32-.56c-.41-.32-.57-.44-1.1-.13a.61.61,0,0,1-.82-.22.59.59,0,0,1,.22-.82,1.9,1.9,0,0,1,2.44.22c.41.32.56.44,1.1.13a4.41,4.41,0,0,0,1.53-2,5.55,5.55,0,0,1,2-2.47,1.89,1.89,0,0,1,2.44.23c.41.32.57.44,1.1.13a4.39,4.39,0,0,0,1.54-2,5.48,5.48,0,0,1,2-2.47,1.89,1.89,0,0,1,2.44.23c.42.32.57.44,1.11.13a.6.6,0,1,1,.6,1,1.88,1.88,0,0,1-2.44-.22c-.41-.32-.57-.44-1.11-.13a4.44,4.44,0,0,0-1.53,2,5.48,5.48,0,0,1-2,2.46,1.88,1.88,0,0,1-2.43-.22c-.42-.32-.57-.44-1.11-.13a4.39,4.39,0,0,0-1.53,2,5.51,5.51,0,0,1-2,2.46A2.21,2.21,0,0,1,173.79,191.86Z" style="fill: rgb(255, 255, 255); transform-origin: 179.979px 186.709px;" id="elmw7mm3r06q9" class="animable"></path></g></g><path d="M144.76,208.13a1.9,1.9,0,0,1-2.44-.23c-.42-.31-.56-.43-1.1-.12a4.55,4.55,0,0,0-1.55,2,5.5,5.5,0,0,1-2,2.47,1.92,1.92,0,0,1-2.44-.23c-.42-.32-.56-.44-1.11-.13a4.57,4.57,0,0,0-1.54,2,7.19,7.19,0,0,1-1.16,1.79v-2.14l.1-.2a5.47,5.47,0,0,1,2-2.46,1.88,1.88,0,0,1,2.44.22c.41.32.57.45,1.1.13a4.31,4.31,0,0,0,1.54-2,5.48,5.48,0,0,1,2-2.47,1.91,1.91,0,0,1,2.45.23c.4.31.56.43,1.1.12a.6.6,0,0,1,.81.22A.59.59,0,0,1,144.76,208.13Z" style="fill: rgb(186, 104, 200); transform-origin: 138.23px 211.05px;" id="elgmb30wyehbv" class="animable"></path><g id="eli7sj2261k7k"><g style="opacity: 0.5; transform-origin: 138.23px 211.05px;" class="animable"><path d="M144.76,208.13a1.9,1.9,0,0,1-2.44-.23c-.42-.31-.56-.43-1.1-.12a4.55,4.55,0,0,0-1.55,2,5.5,5.5,0,0,1-2,2.47,1.92,1.92,0,0,1-2.44-.23c-.42-.32-.56-.44-1.11-.13a4.57,4.57,0,0,0-1.54,2,7.19,7.19,0,0,1-1.16,1.79v-2.14l.1-.2a5.47,5.47,0,0,1,2-2.46,1.88,1.88,0,0,1,2.44.22c.41.32.57.45,1.1.13a4.31,4.31,0,0,0,1.54-2,5.48,5.48,0,0,1,2-2.47,1.91,1.91,0,0,1,2.45.23c.4.31.56.43,1.1.12a.6.6,0,0,1,.81.22A.59.59,0,0,1,144.76,208.13Z" style="fill: rgb(255, 255, 255); transform-origin: 138.23px 211.05px;" id="el1qzv2vscpbg" class="animable"></path></g></g><path d="M226.49,157.52V159a5.76,5.76,0,0,0-1.11,1.65,5.59,5.59,0,0,1-2,2.47,1.89,1.89,0,0,1-2.43-.23c-.42-.31-.57-.44-1.11-.13a4.5,4.5,0,0,0-1.54,2,5.37,5.37,0,0,1-2,2.47,2.18,2.18,0,0,1-1.11.34,2.1,2.1,0,0,1-1.32-.56c-.41-.32-.57-.45-1.11-.13a.6.6,0,0,1-.59-1,1.91,1.91,0,0,1,2.43.23c.41.33.57.44,1.11.13a4.39,4.39,0,0,0,1.53-2,5.63,5.63,0,0,1,2-2.46,1.92,1.92,0,0,1,2.44.22c.41.32.57.45,1.1.14a4.46,4.46,0,0,0,1.54-2,5.48,5.48,0,0,1,2-2.47Z" style="fill: rgb(186, 104, 200); transform-origin: 219.243px 162.545px;" id="elgk0i05oa1ar" class="animable"></path><g id="elerj3keggtim"><g style="opacity: 0.5; transform-origin: 219.243px 162.545px;" class="animable"><path d="M226.49,157.52V159a5.76,5.76,0,0,0-1.11,1.65,5.59,5.59,0,0,1-2,2.47,1.89,1.89,0,0,1-2.43-.23c-.42-.31-.57-.44-1.11-.13a4.5,4.5,0,0,0-1.54,2,5.37,5.37,0,0,1-2,2.47,2.18,2.18,0,0,1-1.11.34,2.1,2.1,0,0,1-1.32-.56c-.41-.32-.57-.45-1.11-.13a.6.6,0,0,1-.59-1,1.91,1.91,0,0,1,2.43.23c.41.33.57.44,1.11.13a4.39,4.39,0,0,0,1.53-2,5.63,5.63,0,0,1,2-2.46,1.92,1.92,0,0,1,2.44.22c.41.32.57.45,1.1.14a4.46,4.46,0,0,0,1.54-2,5.48,5.48,0,0,1,2-2.47Z" style="fill: rgb(255, 255, 255); transform-origin: 219.243px 162.545px;" id="elijs3u63arzf" class="animable"></path></g></g><path d="M152.88,170.05l-2.46,1.4v-.87c0-.06,0-.12,0-.18s0-.12,0-.18v0h0c-.09-1.15-1-1.59-2-1a4,4,0,0,0-1.21,1.16c-.24-1.56-1.52-2.13-3.06-1.24a6.88,6.88,0,0,0-3.11,5.39v1.86a.84.84,0,0,1-.42.73l-1.45.85a2.1,2.1,0,0,0-1,1.8.86.86,0,0,0,1.29.74l13.44-7.76a2.35,2.35,0,0,0,1.17-2A.76.76,0,0,0,152.88,170.05Z" style="fill: rgb(255, 255, 255); transform-origin: 146.122px 174.672px;" id="el8d9jbw8oq9g" class="animable"></path><path d="M213,137.58l-2.46,1.4v-1.25h0c-.09-1.16-1-1.6-2-1a3.8,3.8,0,0,0-1.21,1.16c-.24-1.57-1.52-2.13-3.07-1.24a6.87,6.87,0,0,0-3.1,5.38v1.87a.86.86,0,0,1-.42.73l-1.45.84a2.09,2.09,0,0,0-1,1.8.86.86,0,0,0,1.29.75l13.44-7.77a2.35,2.35,0,0,0,1.17-2A.76.76,0,0,0,213,137.58Z" style="fill: rgb(255, 255, 255); transform-origin: 206.241px 142.181px;" id="elwdt1yt1287c" class="animable"></path><path d="M157.8,179.48l-1.69,1v-.85h0c-.06-.79-.66-1.1-1.39-.68a2.77,2.77,0,0,0-.84.8c-.16-1.07-1-1.46-2.1-.85a4.72,4.72,0,0,0-2.13,3.7v1.28a.59.59,0,0,1-.29.5l-1,.58a1.44,1.44,0,0,0-.71,1.24.59.59,0,0,0,.88.51l9.23-5.33a1.62,1.62,0,0,0,.81-1.4A.52.52,0,0,0,157.8,179.48Z" style="fill: rgb(255, 255, 255); transform-origin: 153.111px 182.699px;" id="el62lpqbutjsy" class="animable"></path><path d="M131.71,243.56a.57.57,0,0,1-.51-.29.59.59,0,0,1,.21-.8l94.5-54.56a.59.59,0,0,1,.8.21.59.59,0,0,1-.21.81L132,243.49A.62.62,0,0,1,131.71,243.56Z" style="fill: rgb(224, 224, 224); transform-origin: 178.957px 215.696px;" id="elxu32yijkza" class="animable"></path><path d="M131.71,295.25a.59.59,0,0,1-.3-1.1l94.5-54.56a.59.59,0,0,1,.8.22.58.58,0,0,1-.21.8L132,295.17A.63.63,0,0,1,131.71,295.25Z" style="fill: rgb(224, 224, 224); transform-origin: 178.954px 267.382px;" id="eluwg3p1szvfj" class="animable"></path></g><g id="freepik--speech-bubbles--inject-304" class="animable" style="transform-origin: 178.527px 189.873px;"><circle cx="290.91" cy="156.77" r="31.12" style="fill: rgb(186, 104, 200); transform-origin: 290.91px 156.77px;" id="elppkag216wj" class="animable"></circle><path d="M269.62,172.55S273,187.89,261,187.89c0,0,14.13,6.14,19.24-6.43Z" style="fill: rgb(186, 104, 200); transform-origin: 270.62px 180.97px;" id="el2brt5fo083a" class="animable"></path><path d="M293.3,157.66a7.54,7.54,0,1,0-4.78,0A13,13,0,0,0,278,170.38c0,.06,0,.12,0,.18h25.88c0-.06,0-.12,0-.18A13,13,0,0,0,293.3,157.66Z" style="fill: rgb(255, 255, 255); transform-origin: 290.94px 156.764px;" id="elchlxlsqgel9" class="animable"></path><circle cx="258.37" cy="91.11" r="24.44" style="fill: rgb(186, 104, 200); transform-origin: 258.37px 91.11px;" id="elfh2wj3k85x" class="animable"></circle><path d="M241.66,103.5s2.65,12-6.81,12c0,0,11.09,4.82,15.1-5Z" style="fill: rgb(186, 104, 200); transform-origin: 242.4px 110.091px;" id="el4azidnw86l" class="animable"></path><path d="M264.93,82.12a6.56,6.56,0,0,0-6.56,6.56,6.56,6.56,0,0,0-13.12,0c0,10.71,13.12,14.88,13.12,14.88s13.12-4.17,13.12-14.88A6.56,6.56,0,0,0,264.93,82.12Z" style="fill: rgb(255, 255, 255); transform-origin: 258.37px 92.84px;" id="elt5tbw6ez5r" class="animable"></path><g id="eli4b5yovldm"><circle cx="77.69" cy="270.41" r="30.17" style="fill: rgb(186, 104, 200); transform-origin: 77.69px 270.41px; transform: rotate(-45deg);" class="animable"></circle></g><path d="M98.32,285.7s-3.27,14.88,8.41,14.88c0,0-13.7,5.94-18.65-6.24Z" style="fill: rgb(186, 104, 200); transform-origin: 97.405px 293.864px;" id="elvxvixvdqmqp" class="animable"></path><path d="M89.24,259.66H66.14a4,4,0,0,0-4,3.95v13.6a4,4,0,0,0,4,4h8.47l3.26,7.28,3-7.28h8.32a4,4,0,0,0,4-4v-13.6A4,4,0,0,0,89.24,259.66Zm-3.36,14.53H69.38a1,1,0,1,1,0-2.08h16.5a1,1,0,0,1,0,2.08Zm0-6.77H69.38a1,1,0,1,1,0-2.08h16.5a1,1,0,0,1,0,2.08Z" style="fill: rgb(255, 255, 255); transform-origin: 77.665px 274.075px;" id="elg6tk50jraup" class="animable"></path></g><defs>     <filter id="active" height="200%">         <feMorphology in="SourceAlpha" result="DILATED" operator="dilate" radius="2"></feMorphology>                <feFlood flood-color="#32DFEC" flood-opacity="1" result="PINK"></feFlood>        <feComposite in="PINK" in2="DILATED" operator="in" result="OUTLINE"></feComposite>        <feMerge>            <feMergeNode in="OUTLINE"></feMergeNode>            <feMergeNode in="SourceGraphic"></feMergeNode>        </feMerge>    </filter>    <filter id="hover" height="200%">        <feMorphology in="SourceAlpha" result="DILATED" operator="dilate" radius="2"></feMorphology>                <feFlood flood-color="#ff0000" flood-opacity="0.5" result="PINK"></feFlood>        <feComposite in="PINK" in2="DILATED" operator="in" result="OUTLINE"></feComposite>        <feMerge>            <feMergeNode in="OUTLINE"></feMergeNode>            <feMergeNode in="SourceGraphic"></feMergeNode>        </feMerge>            <feColorMatrix type="matrix" values="0   0   0   0   0                0   1   0   0   0                0   0   0   0   0                0   0   0   1   0 "></feColorMatrix>    </filter></defs></svg>